<svg width="2.4rem" height="2.4rem" viewBox="0 0 24 24" version="1.1" xmlns="http://www.w3.org/2000/svg" xmlns:xlink="http://www.w3.org/1999/xlink" class="HeaderContent__icon--39VdR SearchButton__search-icon--2cYx5" data-tid="12e1b679"><path fill-rule="evenodd" clip-rule="evenodd" d="M3 10C3 13.866 6.13401 17 10 17C11.5653 17 13.0106 16.4862 14.1764 15.6181L19.5583 21L21 19.5583L15.6181 14.1764C16.4862 13.0106 17 11.5653 17 10C17 6.13401 13.866 3 10 3C6.13401 3 3 6.13401 3 10ZM15 10C15 12.7614 12.7614 15 10 15C7.23858 15 5 12.7614 5 10C5 7.23858 7.23858 5 10 5C12.7614 5 15 7.23858 15 10Z" fill="white"></path></svg>